<svg width="153" height="165" viewBox="0 0 153 165" fill="none" xmlns="http://www.w3.org/2000/svg">
<path d="M79.8516 101.883C79.8516 98.522 81.64 95.4152 84.5462 93.7275L111.387 78.1403C114.315 76.4398 117.931 76.4398 120.859 78.1403L147.7 93.7275C150.606 95.4152 152.394 98.522 152.394 101.883V121.069V139.992C152.394 143.492 150.456 146.705 147.359 148.336L120.518 162.473C117.767 163.922 114.479 163.922 111.728 162.473L84.8874 148.336C81.7903 146.705 79.8516 143.492 79.8516 139.992V121.069V101.883Z" fill="#7C42E1"/>
<path d="M120.52 162.471L147.359 148.336C150.456 146.705 152.394 143.492 152.394 139.992V121.069V101.875C152.394 98.5183 150.61 95.4148 147.71 93.7256L121.146 78.2546C120.667 78.0022 120.447 77.9001 120.076 77.7361C126.677 121.12 116.934 135.766 81.6106 145.421C82.1464 146.324 82.6796 146.828 83.7869 147.725C95.011 153.662 101.747 157.209 111.726 162.469C114.477 163.92 117.768 163.921 120.52 162.471Z" fill="#7C42E1"/>
<path d="M0 101.937C0 98.5765 1.78846 95.4697 4.69465 93.782L31.5355 78.1948C34.4638 76.4943 38.079 76.4943 41.0073 78.1948L67.8482 93.782C70.7544 95.4697 72.5428 98.5765 72.5428 101.937V121.123V140.046C72.5428 143.547 70.6041 146.759 67.507 148.39L40.6662 162.527C37.9154 163.976 34.6274 163.976 31.8767 162.527L5.03583 148.39C1.93878 146.759 0 143.547 0 140.046V121.123V101.937Z" fill="#7C42E1"/>
<path d="M40.6685 162.526L67.507 148.39C70.6041 146.759 72.5428 143.547 72.5428 140.046V121.123V101.929C72.5428 98.5728 70.7589 95.4693 67.8585 93.7801L41.2949 78.3091C40.8158 78.0567 40.5957 77.9546 40.2244 77.7906C46.8256 121.174 37.0823 135.82 1.75909 145.476C2.29485 146.379 2.82809 146.882 3.93538 147.779C15.1595 153.717 21.8955 157.264 31.8743 162.524C34.6259 163.974 37.9165 163.975 40.6685 162.526Z" fill="#7C42E1"/>
<path d="M40.624 26.4926C40.624 23.1319 42.4125 20.0252 45.3187 18.3375L72.1595 2.75027C75.0878 1.04973 78.7031 1.04973 81.6314 2.75027L108.472 18.3375C111.378 20.0252 113.167 23.1319 113.167 26.4926V45.6786V64.6017C113.167 68.1021 111.228 71.3145 108.131 72.9457L81.2902 87.0827C78.5395 88.5315 75.2514 88.5315 72.5007 87.0827L45.6599 72.9457C42.5628 71.3145 40.624 68.1021 40.624 64.6017V45.6786V26.4926Z" fill="#7C42E1"/>
<path d="M81.2925 87.0814L108.131 72.9457C111.228 71.3145 113.167 68.1021 113.167 64.6017V45.6785V26.4847C113.167 23.1282 111.383 20.0247 108.482 18.3355L81.9189 2.86451C81.4398 2.6121 81.2197 2.51002 80.8483 2.34599C87.4495 45.7296 77.7063 60.3759 42.3831 70.031C42.9188 70.9341 43.4521 71.4379 44.5593 72.3349C55.7835 78.2723 62.5195 81.8192 72.4983 87.0792C75.2498 88.5297 78.5405 88.5309 81.2925 87.0814Z" fill="#7C42E1"/>
<path d="M40.624 26.4926C40.624 23.1319 42.4125 20.0252 45.3187 18.3375L72.1595 2.75027C75.0878 1.04973 78.7031 1.04973 81.6314 2.75027L108.472 18.3375C111.378 20.0252 113.167 23.1319 113.167 26.4926V45.6786V64.6017C113.167 68.1021 111.228 71.3145 108.131 72.9457L81.2902 87.0827C78.5395 88.5315 75.2514 88.5315 72.5007 87.0827L45.6599 72.9457C42.5628 71.3145 40.624 68.1021 40.624 64.6017V45.6786V26.4926Z" fill="#7C42E1"/>
<path d="M81.2925 87.0814L108.131 72.9457C111.228 71.3145 113.167 68.1021 113.167 64.6017V45.6785V26.4847C113.167 23.1282 111.383 20.0247 108.482 18.3355L81.9189 2.86451C81.4398 2.6121 81.2197 2.51002 80.8483 2.34599C87.4495 45.7296 77.7063 60.3759 42.3831 70.031C42.9188 70.9341 43.4521 71.4379 44.5593 72.3349C55.7835 78.2723 62.5195 81.8192 72.4983 87.0792C75.2498 88.5297 78.5405 88.5309 81.2925 87.0814Z" fill="#7C42E1"/>
</svg>
